<?xml version="1.0" encoding="UTF-8"?>
<!DOCTYPE svg PUBLIC "-//W3C//DTD SVG 1.1//EN" "http://www.w3.org/Graphics/SVG/1.1/DTD/svg11.dtd">
<svg xmlns="http://www.w3.org/2000/svg" version="1.1" width="50px" height="82px" style="shape-rendering:geometricPrecision; text-rendering:geometricPrecision; image-rendering:optimizeQuality; fill-rule:evenodd; clip-rule:evenodd" xmlns:xlink="http://www.w3.org/1999/xlink">
<g><path style="opacity:0.83" fill="#3173a1" d="M 49.5,19.5 C 49.5,23.8333 49.5,28.1667 49.5,32.5C 41.7917,48.9175 33.7917,65.2509 25.5,81.5C 24.8333,81.5 24.1667,81.5 23.5,81.5C 15.1925,65.2199 7.19246,48.8865 -0.5,32.5C -0.5,28.1667 -0.5,23.8333 -0.5,19.5C 7.70517,0.938706 21.0385,-3.89463 39.5,5C 44.2419,9.02322 47.5752,13.8566 49.5,19.5 Z"/></g>
<g><path style="opacity:1" fill="#3c8dcc" d="M 46.5,20.5 C 47.6408,23.6399 47.8075,26.9733 47,30.5C 41.9364,42.9587 36.103,54.9587 29.5,66.5C 29.3398,64.8008 29.5065,63.1341 30,61.5C 31.7862,58.2635 33.2862,54.9302 34.5,51.5C 36.341,49.1515 37.6743,46.4848 38.5,43.5C 40.2671,41.2084 41.2671,38.5418 41.5,35.5C 38.5,35.5 35.5,35.5 32.5,35.5C 36.9095,30.9378 38.2428,25.6045 36.5,19.5C 38.8568,19.3367 41.1902,19.5034 43.5,20C 45.1906,26.6004 46.1906,26.7671 46.5,20.5 Z"/></g>
<g><path style="opacity:1" fill="#4b98d0" d="M 46.5,20.5 C 46.1906,26.7671 45.1906,26.6004 43.5,20C 41.1902,19.5034 38.8568,19.3367 36.5,19.5C 38.2428,25.6045 36.9095,30.9378 32.5,35.5C 24.4013,40.5053 17.9013,38.8387 13,30.5C 12.5014,26.8484 12.3347,23.1817 12.5,19.5C 10.1432,19.3367 7.80982,19.5034 5.5,20C 4.67051,21.8161 3.83718,23.6494 3,25.5C 2.50649,23.8659 2.33982,22.1992 2.5,20.5C 7.21698,7.30098 16.5503,1.80098 30.5,4C 38.756,6.75475 44.0894,12.2547 46.5,20.5 Z"/></g>
<g><path style="opacity:1" fill="#3c7ba8" d="M 20.5,15.5 C 31.4856,14.6526 35.9856,19.6526 34,30.5C 28.3908,37.9025 22.3908,38.2358 16,31.5C 12.9745,24.7419 14.4745,19.4085 20.5,15.5 Z"/></g>
<g><path style="opacity:1" fill="#f9fbfc" d="M 21.5,17.5 C 30.174,17.006 33.674,21.006 32,29.5C 27.6248,34.3815 22.9581,34.7148 18,30.5C 15.3187,25.0553 16.4853,20.722 21.5,17.5 Z"/></g>
<g><path style="opacity:1" fill="#3388cc" d="M 32.5,35.5 C 35.5,35.5 38.5,35.5 41.5,35.5C 41.2671,38.5418 40.2671,41.2084 38.5,43.5C 29.3483,42.5064 20.015,42.1731 10.5,42.5C 11.0421,45.9122 12.3754,48.9122 14.5,51.5C 14.7373,52.791 14.404,53.791 13.5,54.5C 8.89629,46.9563 5.06296,38.9563 2,30.5C 1.1925,26.9733 1.35916,23.6399 2.5,20.5C 2.33982,22.1992 2.50649,23.8659 3,25.5C 3.83718,23.6494 4.67051,21.8161 5.5,20C 7.80982,19.5034 10.1432,19.3367 12.5,19.5C 12.3347,23.1817 12.5014,26.8484 13,30.5C 17.9013,38.8387 24.4013,40.5053 32.5,35.5 Z"/></g>
<g><path style="opacity:1" fill="#2981ca" d="M 38.5,43.5 C 37.6743,46.4848 36.341,49.1515 34.5,51.5C 27.8333,51.5 21.1667,51.5 14.5,51.5C 12.3754,48.9122 11.0421,45.9122 10.5,42.5C 20.015,42.1731 29.3483,42.5064 38.5,43.5 Z"/></g>
<g><path style="opacity:1" fill="#257cc9" d="M 14.5,51.5 C 21.1667,51.5 27.8333,51.5 34.5,51.5C 33.2862,54.9302 31.7862,58.2635 30,61.5C 29.5065,63.1341 29.3398,64.8008 29.5,66.5C 28.0991,69.6339 26.4325,72.6339 24.5,75.5C 20.0429,68.9194 16.3763,61.9194 13.5,54.5C 14.404,53.791 14.7373,52.791 14.5,51.5 Z"/></g>
</svg>
