<?xml version="1.0" encoding="UTF-8"?>
<!DOCTYPE svg PUBLIC "-//W3C//DTD SVG 1.1//EN" "http://www.w3.org/Graphics/SVG/1.1/DTD/svg11.dtd">
<svg xmlns="http://www.w3.org/2000/svg" version="1.1" width="50px" height="82px" style="shape-rendering:geometricPrecision; text-rendering:geometricPrecision; image-rendering:optimizeQuality; fill-rule:evenodd; clip-rule:evenodd" xmlns:xlink="http://www.w3.org/1999/xlink">
    <g><path style="opacity:0.859" fill="#389a31" d="M 48.5,19.5 C 47.8969,23.2728 47.2302,26.9394 46.5,30.5C 46.5362,9.36824 36.2029,0.868236 15.5,5C 5.22644,10.3791 0.893108,18.8791 2.5,30.5C 1.76978,26.9394 1.10311,23.2728 0.5,19.5C 5.18784,5.01612 15.1878,-1.15055 30.5,1C 40.1326,3.79707 46.1326,9.96374 48.5,19.5 Z"/></g>
    <g><path style="opacity:1" fill="#3bc132" d="M 46.5,30.5 C 45.5,33.1667 44.5,35.8333 43.5,38.5C 42.8761,38.0831 42.5427,37.4164 42.5,36.5C 44.1529,31.6401 44.8196,26.6401 44.5,21.5C 43.6382,18.1148 41.9716,15.1148 39.5,12.5C 29.5,11.1667 19.5,11.1667 9.5,12.5C 7.02842,15.1148 5.36176,18.1148 4.5,21.5C 4.1804,26.6401 4.84707,31.6401 6.5,36.5C 6.45728,37.4164 6.12395,38.0831 5.5,38.5C 4.5,35.8333 3.5,33.1667 2.5,30.5C 0.893108,18.8791 5.22644,10.3791 15.5,5C 36.2029,0.868236 46.5362,9.36824 46.5,30.5 Z"/></g>
    <g><path style="opacity:1" fill="#38bc30" d="M 44.5,21.5 C 41.8127,21.3359 39.146,21.5026 36.5,22C 37.2983,34.8559 31.2983,39.8559 18.5,37C 13.2629,33.3756 11.2629,28.5422 12.5,22.5C 9.91355,21.52 7.24688,21.1866 4.5,21.5C 5.36176,18.1148 7.02842,15.1148 9.5,12.5C 19.5,11.1667 29.5,11.1667 39.5,12.5C 41.9716,15.1148 43.6382,18.1148 44.5,21.5 Z"/></g>
    <g><path style="opacity:1" fill="#3d9336" d="M 20.5,15.5 C 31.6218,14.7807 36.1218,19.7807 34,30.5C 27.6667,38.5 21.3333,38.5 15,30.5C 13.0867,23.9698 14.92,18.9698 20.5,15.5 Z"/></g>
    <g><path style="opacity:1" fill="#f1f4f1" d="M 21.5,17.5 C 30.5523,17.6178 33.7189,21.9512 31,30.5C 23.7051,35.7735 18.8718,34.1069 16.5,25.5C 17.1789,22.127 18.8455,19.4604 21.5,17.5 Z"/></g>
    <g><path style="opacity:0.823" fill="#2f8528" d="M -0.5,19.5 C -0.166667,19.5 0.166667,19.5 0.5,19.5C 1.10311,23.2728 1.76978,26.9394 2.5,30.5C 3.5,33.1667 4.5,35.8333 5.5,38.5C 11.0391,51.2449 17.3724,63.5782 24.5,75.5C 31.1017,63.2965 37.435,50.9631 43.5,38.5C 44.5,35.8333 45.5,33.1667 46.5,30.5C 47.2302,26.9394 47.8969,23.2728 48.5,19.5C 48.8333,19.5 49.1667,19.5 49.5,19.5C 49.5,23.8333 49.5,28.1667 49.5,32.5C 41.7917,48.9175 33.7917,65.2509 25.5,81.5C 24.8333,81.5 24.1667,81.5 23.5,81.5C 15.1925,65.2199 7.19246,48.8865 -0.5,32.5C -0.5,28.1667 -0.5,23.8333 -0.5,19.5 Z"/></g>
    <g><path style="opacity:1" fill="#30b02b" d="M 4.5,21.5 C 7.24688,21.1866 9.91355,21.52 12.5,22.5C 11.2629,28.5422 13.2629,33.3756 18.5,37C 31.2983,39.8559 37.2983,34.8559 36.5,22C 39.146,21.5026 41.8127,21.3359 44.5,21.5C 44.8196,26.6401 44.1529,31.6401 42.5,36.5C 42.5427,37.4164 42.8761,38.0831 43.5,38.5C 37.435,50.9631 31.1017,63.2965 24.5,75.5C 17.3724,63.5782 11.0391,51.2449 5.5,38.5C 6.12395,38.0831 6.45728,37.4164 6.5,36.5C 4.84707,31.6401 4.1804,26.6401 4.5,21.5 Z"/></g>
    <g><path style="opacity:1" fill="#27ad24" d="M 33.5,53.5 C 27.5,52.1667 21.5,52.1667 15.5,53.5C 12.8972,49.8997 10.5638,46.0664 8.5,42C 8.83333,41.6667 9.16667,41.3333 9.5,41C 19.4944,40.5002 29.4944,40.3335 39.5,40.5C 38.3148,45.204 36.3148,49.5374 33.5,53.5 Z"/></g>
    <g><path style="opacity:1" fill="#1fab1c" d="M 33.5,53.5 C 31.0227,59.788 28.0227,65.788 24.5,71.5C 20.975,65.7834 17.975,59.7834 15.5,53.5C 21.5,52.1667 27.5,52.1667 33.5,53.5 Z"/></g>
</svg>
